<svg width="95" height="68" viewBox="0 0 95 68" fill="none" xmlns="http://www.w3.org/2000/svg">
<path d="M59.9956 49.7761H61.1156V60.9761H59.9956V55.7441H53.9156V60.9761H52.7956V49.7761H53.9156V54.6881H59.9956V49.7761ZM70.2146 59.9681C69.4039 60.7681 68.4119 61.1681 67.2386 61.1681C66.0653 61.1681 65.0679 60.7681 64.2466 59.9681C63.4359 59.1574 63.0306 58.1601 63.0306 56.9761C63.0306 55.7921 63.4359 54.8001 64.2466 54.0001C65.0679 53.1894 66.0653 52.7841 67.2386 52.7841C68.4119 52.7841 69.4039 53.1894 70.2146 54.0001C71.0359 54.8001 71.4466 55.7921 71.4466 56.9761C71.4466 58.1601 71.0359 59.1574 70.2146 59.9681ZM64.9986 59.2321C65.6066 59.8401 66.3533 60.1441 67.2386 60.1441C68.1239 60.1441 68.8706 59.8401 69.4786 59.2321C70.0866 58.6134 70.3906 57.8614 70.3906 56.9761C70.3906 56.0907 70.0866 55.3441 69.4786 54.7361C68.8706 54.1174 68.1239 53.8081 67.2386 53.8081C66.3533 53.8081 65.6066 54.1174 64.9986 54.7361C64.3906 55.3441 64.0866 56.0907 64.0866 56.9761C64.0866 57.8614 64.3906 58.6134 64.9986 59.2321ZM81.7417 52.7841C82.6377 52.7841 83.3577 53.0721 83.9017 53.6481C84.4564 54.2241 84.7337 55.0027 84.7337 55.9841V60.9761H83.6777V55.9841C83.6777 55.2907 83.4964 54.7574 83.1337 54.3841C82.7817 54.0001 82.3124 53.8081 81.7257 53.8081C81.0644 53.8081 80.5257 54.0321 80.1097 54.4801C79.7044 54.9174 79.5017 55.6054 79.5017 56.5441V60.9761H78.4457V55.9841C78.4457 55.2801 78.2751 54.7414 77.9337 54.3681C77.6031 53.9947 77.1497 53.8081 76.5737 53.8081C75.9337 53.8081 75.3897 54.0321 74.9417 54.4801C74.4937 54.9281 74.2697 55.6161 74.2697 56.5441V60.9761H73.2137V52.9761H74.2697V54.1441C74.8457 53.2374 75.6617 52.7841 76.7177 52.7841C77.8697 52.7841 78.6804 53.2694 79.1497 54.2401C79.7257 53.2694 80.5897 52.7841 81.7417 52.7841ZM90.4722 52.7841C91.6562 52.7841 92.6109 53.2054 93.3362 54.0481C94.0722 54.8801 94.4402 55.8667 94.4402 57.0081C94.4402 57.1254 94.4296 57.2907 94.4082 57.5041H87.3842C87.4909 58.3147 87.8322 58.9601 88.4082 59.4401C88.9949 59.9094 89.7149 60.1441 90.5682 60.1441C91.1762 60.1441 91.6989 60.0214 92.1362 59.7761C92.5842 59.5201 92.9202 59.1894 93.1442 58.7841L94.0722 59.3281C93.7202 59.8934 93.2402 60.3414 92.6322 60.6721C92.0242 61.0027 91.3309 61.1681 90.5522 61.1681C89.2936 61.1681 88.2696 60.7734 87.4802 59.9841C86.6909 59.1947 86.2962 58.1921 86.2962 56.9761C86.2962 55.7814 86.6856 54.7841 87.4642 53.9841C88.2429 53.1841 89.2456 52.7841 90.4722 52.7841ZM90.4722 53.8081C89.6402 53.8081 88.9416 54.0587 88.3762 54.5601C87.8216 55.0507 87.4909 55.6907 87.3842 56.4801H93.3522C93.2456 55.6374 92.9202 54.9814 92.3762 54.5121C91.8322 54.0427 91.1976 53.8081 90.4722 53.8081Z" fill="black"/>
<g clip-path="url(#clip0_276_1111)">
<path d="M38.5144 34.6762V39.7901C38.5144 40.6592 38.5359 41.5306 38.5144 42.3996C38.4548 44.2165 37.3108 45.341 35.5065 45.372C34.7915 45.3839 34.0764 45.3959 33.3614 45.3601C32.672 45.3379 32.0159 45.058 31.5223 44.5754C31.0286 44.0929 30.7333 43.4427 30.6943 42.753C30.6681 42.4139 30.6705 42.0701 30.6705 41.7287C30.6705 32.2505 30.6705 22.7723 30.6705 13.2941C30.6752 10.5629 31.6286 9.60791 34.3791 9.60791C38.6288 9.63417 42.8809 9.5721 47.1259 9.75593C50.3697 9.89679 53.299 11.069 55.6253 13.4517C58.178 16.066 59.0455 19.2819 58.8239 22.8464C58.7648 23.1727 58.6067 23.4728 58.371 23.7058C56.6599 25.6086 55.5125 27.9518 55.058 30.4719C54.9547 30.9413 54.696 31.362 54.3239 31.6656C51.3017 33.9862 47.7694 34.6237 44.075 34.6595C42.2541 34.6762 40.4331 34.6762 38.5144 34.6762ZM38.5549 27.6547H44.5327C44.8735 27.6547 45.2143 27.6404 45.5552 27.6141C48.7752 27.3539 50.9346 25.1813 50.9489 22.1898C50.9632 19.0694 48.8896 16.9804 45.5123 16.818C43.4982 16.7225 41.4818 16.7512 39.4654 16.7297C39.1675 16.7297 38.8696 16.756 38.512 16.7727C38.512 20.2536 38.512 23.639 38.512 27.022C38.5168 27.1915 38.5406 27.3706 38.5549 27.6451V27.6547Z" fill="black"/>
<path d="M28.132 18.84V19.8953C28.132 27.7524 28.12 35.6095 28.1486 43.4666C28.1486 44.1686 27.9794 44.5291 27.2811 44.7201C24.4829 45.484 21.7395 46.5297 18.8961 47.0216C15.4758 47.6137 12.3058 45.2787 11.5645 41.8838C11.2509 40.5155 11.2377 39.0953 11.5257 37.7214C11.8138 36.3475 12.3963 35.0527 13.233 33.9264C14.0004 32.8496 15.1397 32.2695 16.5221 32.0761C15.8834 27.6927 17.7592 24.3479 20.9268 21.6095C22.9384 19.8738 25.2623 18.7827 28.132 18.84Z" fill="white"/>
<path d="M63.6049 35.373C63.7481 36.5785 64.3079 37.6959 65.1873 38.5314C66.0666 39.3668 67.2101 39.8678 68.4195 39.9474C69.9369 40.0691 71.4606 39.8098 72.8527 39.1929C73.7295 38.8385 74.67 38.6694 75.6152 38.6963C76.652 38.7202 77.5339 39.7158 77.7293 40.7639C77.9247 41.812 77.4361 42.4685 76.6281 43.032C71.0127 46.9545 63.1068 45.8539 59.1979 40.6159C54.6384 34.504 56.5618 22.6359 67.0633 21.0029C72.7836 20.1148 77.143 22.4354 79.1403 27.535C79.8267 29.2898 79.188 30.6387 77.3479 31.2188C73.8872 32.2908 70.4121 33.3126 66.9442 34.3559C65.8335 34.6926 64.7132 35.0364 63.6049 35.373ZM72.5381 28.552C71.6396 26.6588 69.5302 25.7969 67.3589 26.3532C64.9015 26.9835 63.4047 28.8743 63.5787 31.1663L72.5381 28.552Z" fill="black"/>
<path d="M82.8252 27.2294C80.3822 26.8283 79.9961 26.4774 80.0437 24.4027C80.0628 23.5933 80.1486 22.624 80.6038 22.0391C81.0043 21.5258 81.9624 21.447 82.8252 21.1175C82.8252 20.2342 82.8252 19.155 82.8252 18.0759C82.8443 16.4668 83.8024 15.4736 85.3946 15.3733C88.2786 15.1919 89.7158 15.8986 89.5013 19.272C89.456 19.9477 89.5013 20.6281 89.5013 21.4207C90.4809 21.4207 91.3699 21.4088 92.2613 21.4207C94.0775 21.447 95.0118 22.4306 95.0047 24.2857C95.0047 26.0834 94.0513 27.0695 92.2876 27.0933C91.3961 27.1077 90.5047 27.0933 89.5609 27.0933C89.537 27.4658 89.5037 27.7356 89.5037 28.0077C89.5037 30.8966 89.5037 33.7846 89.5037 36.6718C89.5037 39.0593 90.1806 39.6394 92.564 39.3863H92.657C94.4613 39.1763 95.1787 39.8638 94.907 41.6855C94.5661 43.9631 93.6199 45.1019 91.041 45.2666C89.7758 45.3586 88.5041 45.2968 87.2537 45.0828C84.6176 44.6053 82.9849 42.4948 82.8967 39.3744C82.7919 35.7431 82.8443 32.107 82.83 28.4733C82.8228 28.0817 82.8252 27.6806 82.8252 27.2294Z" fill="black"/>
<path d="M25.4316 12.16C25.0216 13.2893 24.7499 14.7003 24.0444 15.8439C22.7073 18.0069 20.269 18.6611 17.8474 17.7109C14.2246 16.2927 12.151 13.4683 11.0188 9.87523C10.33 7.69548 10.218 5.47992 11.1761 3.3336C12.4251 0.535505 15.0778 -0.548396 17.9547 0.568933C21.5585 1.96559 23.5939 4.78995 24.7237 8.33771C25.0717 9.47175 25.1599 10.6941 25.4316 12.16Z" fill="white"/>
<path d="M14.7703 23.8799C14.7846 25.3887 14.4819 26.8093 13.6644 28.0627C12.2653 30.2114 9.85086 30.9682 7.37921 30.0132C3.81833 28.6357 1.75663 25.8734 0.581587 22.3734C-0.0113025 20.7326 -0.154507 18.9626 0.166866 17.2475C1.04398 12.9501 4.73357 11.1691 8.54234 13.3393C12.5918 15.6336 14.4676 19.3246 14.7703 23.8799Z" fill="white"/>
<path d="M29.6455 7.81968C29.6264 7.76477 29.5739 7.69553 29.5906 7.65255C30.8944 4.1788 33.0133 1.42368 36.7148 0.409014C40.5879 -0.651017 43.7269 2.22587 43.51 6.5591H34.0763C31.7524 6.5591 31.5045 6.63072 29.6455 7.81968Z" fill="white"/>
</g>
<defs>
<clipPath id="clip0_276_1111">
<rect width="94.9999" height="46.978" fill="white" transform="translate(0 0.134277)"/>
</clipPath>
</defs>
</svg>
