<svg width="107" height="76" viewBox="0 0 107 76" fill="none" xmlns="http://www.w3.org/2000/svg">
<path d="M67.6201 55.3998H68.8801V67.9998H67.6201V62.1138H60.7801V67.9998H59.5201V55.3998H60.7801V60.9258H67.6201V55.3998ZM79.1165 66.8658C78.2045 67.7658 77.0885 68.2158 75.7685 68.2158C74.4485 68.2158 73.3265 67.7658 72.4025 66.8658C71.4905 65.9538 71.0345 64.8318 71.0345 63.4998C71.0345 62.1678 71.4905 61.0518 72.4025 60.1518C73.3265 59.2398 74.4485 58.7838 75.7685 58.7838C77.0885 58.7838 78.2045 59.2398 79.1165 60.1518C80.0405 61.0518 80.5025 62.1678 80.5025 63.4998C80.5025 64.8318 80.0405 65.9538 79.1165 66.8658ZM73.2485 66.0378C73.9325 66.7218 74.7725 67.0638 75.7685 67.0638C76.7645 67.0638 77.6045 66.7218 78.2885 66.0378C78.9725 65.3418 79.3145 64.4958 79.3145 63.4998C79.3145 62.5038 78.9725 61.6638 78.2885 60.9798C77.6045 60.2838 76.7645 59.9358 75.7685 59.9358C74.7725 59.9358 73.9325 60.2838 73.2485 60.9798C72.5645 61.6638 72.2225 62.5038 72.2225 63.4998C72.2225 64.4958 72.5645 65.3418 73.2485 66.0378ZM92.0845 58.7838C93.0925 58.7838 93.9025 59.1078 94.5145 59.7558C95.1385 60.4038 95.4505 61.2798 95.4505 62.3838V67.9998H94.2625V62.3838C94.2625 61.6038 94.0585 61.0038 93.6505 60.5838C93.2545 60.1518 92.7265 59.9358 92.0665 59.9358C91.3225 59.9358 90.7165 60.1878 90.2485 60.6918C89.7925 61.1838 89.5645 61.9578 89.5645 63.0138V67.9998H88.3765V62.3838C88.3765 61.5918 88.1845 60.9858 87.8005 60.5658C87.4285 60.1458 86.9185 59.9358 86.2705 59.9358C85.5505 59.9358 84.9385 60.1878 84.4345 60.6918C83.9305 61.1958 83.6785 61.9698 83.6785 63.0138V67.9998H82.4905V58.9998H83.6785V60.3138C84.3265 59.2938 85.2445 58.7838 86.4325 58.7838C87.7285 58.7838 88.6405 59.3298 89.1685 60.4218C89.8165 59.3298 90.7885 58.7838 92.0845 58.7838ZM101.906 58.7838C103.238 58.7838 104.312 59.2578 105.128 60.2058C105.956 61.1418 106.37 62.2518 106.37 63.5358C106.37 63.6678 106.358 63.8538 106.334 64.0938H98.4323C98.5523 65.0058 98.9363 65.7318 99.5843 66.2718C100.244 66.7998 101.054 67.0638 102.014 67.0638C102.698 67.0638 103.286 66.9258 103.778 66.6498C104.282 66.3618 104.66 65.9898 104.912 65.5338L105.956 66.1458C105.56 66.7818 105.02 67.2858 104.336 67.6578C103.652 68.0298 102.872 68.2158 101.996 68.2158C100.58 68.2158 99.4283 67.7718 98.5403 66.8838C97.6523 65.9958 97.2083 64.8678 97.2083 63.4998C97.2083 62.1558 97.6463 61.0338 98.5223 60.1338C99.3983 59.2338 100.526 58.7838 101.906 58.7838ZM101.906 59.9358C100.97 59.9358 100.184 60.2178 99.5483 60.7818C98.9243 61.3338 98.5523 62.0538 98.4323 62.9418H105.146C105.026 61.9938 104.66 61.2558 104.048 60.7278C103.436 60.1998 102.722 59.9358 101.906 59.9358Z" fill="black"/>
<g clip-path="url(#clip0_6_2239)">
<path d="M43.3793 38.905V44.6649C43.3793 45.6437 43.4034 46.6252 43.3793 47.604C43.3122 49.6503 42.0236 50.9169 39.9914 50.9518C39.186 50.9653 38.3807 50.9787 37.5753 50.9384C36.7989 50.9134 36.0599 50.5981 35.5039 50.0547C34.9479 49.5112 34.6152 48.7789 34.5713 48.002C34.5418 47.6201 34.5445 47.2329 34.5445 46.8484C34.5445 36.1729 34.5445 25.4975 34.5445 14.822C34.5499 11.7458 35.6237 10.6702 38.7216 10.6702C43.5081 10.6997 48.2973 10.6298 53.0785 10.8369C56.7321 10.9955 60.0314 12.3159 62.6515 14.9995C65.5266 17.944 66.5038 21.5661 66.2541 25.5808C66.1876 25.9484 66.0095 26.2865 65.7441 26.5489C63.8168 28.692 62.5245 31.3311 62.0126 34.1696C61.8962 34.6983 61.6048 35.1721 61.1857 35.5141C57.7818 38.1278 53.8033 38.8458 49.6423 38.8861C47.5913 38.905 45.5403 38.905 43.3793 38.905ZM43.4249 30.9965H50.1577C50.5416 30.9965 50.9255 30.9804 51.3094 30.9508C54.9362 30.6577 57.3683 28.2107 57.3845 24.8414C57.4006 21.3268 55.065 18.9739 51.261 18.791C48.9926 18.6835 46.7215 18.7157 44.4504 18.6915C44.1148 18.6915 43.7793 18.7211 43.3766 18.7399C43.3766 22.6606 43.3766 26.4736 43.3766 30.2839C43.382 30.4749 43.4088 30.6765 43.4249 30.9858V30.9965Z" fill="black"/>
<path d="M31.6854 21.0686V22.2571C31.6854 31.1067 31.672 39.9563 31.7042 48.8059C31.7042 49.5965 31.5136 50.0025 30.727 50.2177C27.5754 51.0782 24.4855 52.2559 21.2828 52.8099C17.4305 53.4768 13.8601 50.8469 13.0252 47.0231C12.672 45.482 12.6571 43.8824 12.9815 42.335C13.306 40.7875 13.9621 39.3291 14.9044 38.0606C15.7688 36.8478 17.052 36.1944 18.609 35.9766C17.8896 31.0395 20.0023 27.2722 23.5701 24.1879C25.8358 22.2329 28.4532 21.004 31.6854 21.0686Z" fill="#FEBF0F"/>
<path d="M71.6393 39.6901C71.8006 41.0479 72.4311 42.3064 73.4216 43.2474C74.412 44.1885 75.6999 44.7527 77.0621 44.8423C78.7711 44.9794 80.4873 44.6873 82.0553 43.9926C83.0429 43.5933 84.1022 43.4029 85.1667 43.4332C86.3344 43.4601 87.3277 44.5815 87.5479 45.7619C87.768 46.9424 87.2177 47.6819 86.3076 48.3165C79.9829 52.7346 71.0783 51.495 66.6757 45.5952C61.5402 38.7113 63.7066 25.3442 75.5346 23.5049C81.9775 22.5045 86.8875 25.1183 89.1371 30.862C89.9102 32.8385 89.1908 34.3578 87.1183 35.0112C83.2204 36.2186 79.3064 37.3695 75.4004 38.5446C74.1494 38.9237 72.8877 39.311 71.6393 39.6901ZM81.701 32.0076C80.6889 29.8752 78.3131 28.9044 75.8675 29.531C73.0997 30.2409 71.4138 32.3706 71.6098 34.952L81.701 32.0076Z" fill="black"/>
<path d="M93.2874 30.5177C90.5357 30.0659 90.1009 29.6706 90.1546 27.3339C90.176 26.4223 90.2727 25.3306 90.7854 24.6717C91.2364 24.0936 92.3156 24.0049 93.2874 23.6338C93.2874 22.6388 93.2874 21.4234 93.2874 20.208C93.3089 18.3956 94.388 17.2769 96.1813 17.164C99.4296 16.9596 101.048 17.7556 100.807 21.5552C100.756 22.3162 100.807 23.0825 100.807 23.9753C101.91 23.9753 102.911 23.9618 103.915 23.9753C105.961 24.0049 107.013 25.1127 107.005 27.2021C107.005 29.227 105.932 30.3375 103.945 30.3644C102.941 30.3806 101.937 30.3644 100.874 30.3644C100.847 30.7839 100.809 31.0878 100.809 31.3943C100.809 34.648 100.809 37.9009 100.809 41.1528C100.809 43.8418 101.572 44.4953 104.256 44.2102H104.361C106.393 43.9736 107.201 44.748 106.895 46.7998C106.511 49.3651 105.446 50.6478 102.541 50.8333C101.116 50.9368 99.6836 50.8673 98.2752 50.6263C95.3062 50.0884 93.4673 47.7113 93.3679 44.1968C93.2498 40.1068 93.3089 36.0114 93.2928 31.9187C93.2847 31.4777 93.2874 31.0259 93.2874 30.5177Z" fill="black"/>
<path d="M28.644 13.5447C28.1822 14.8166 27.8762 16.4058 27.0816 17.6938C25.5756 20.1301 22.8293 20.8669 20.1018 19.7967C16.0213 18.1994 13.6858 15.0183 12.4106 10.9713C11.6348 8.51618 11.5086 6.02077 12.5878 3.60333C13.9945 0.451786 16.9824 -0.76903 20.2226 0.489436C24.2816 2.06252 26.5742 5.24363 27.8467 9.23953C28.2386 10.5168 28.3379 11.8936 28.644 13.5447Z" fill="#FEBF0F"/>
<path d="M16.6361 26.7451C16.6522 28.4445 16.3113 30.0445 15.3905 31.4562C13.8147 33.8764 11.0952 34.7288 8.31139 33.6532C4.3007 32.1016 1.97858 28.9904 0.655113 25.0483C-0.0126685 23.2002 -0.173962 21.2066 0.188006 19.2749C1.17591 14.4347 5.33156 12.4287 9.62143 14.873C14.1824 17.4571 16.2952 21.6144 16.6361 26.7451Z" fill="#FEBF0F"/>
<path d="M33.3901 8.65593C33.3686 8.59409 33.3096 8.5161 33.3283 8.4677C34.7968 4.55516 37.1833 1.45202 41.3524 0.309185C45.7148 -0.884744 49.2503 2.35554 49.006 7.23613H38.3806C35.7632 7.23613 35.484 7.3168 33.3901 8.65593Z" fill="#FEBF0F"/>
</g>
<defs>
<clipPath id="clip0_6_2239">
<rect width="107" height="52.912" fill="white"/>
</clipPath>
</defs>
</svg>
